<svg viewBox="0 0 200 200"><path d="M 59.521 87.576 L 59.521 99.676 M 76.052 77.089 L 84.116 77.089 M 58.714 61.359 C 59.58 61.25 59.118 56.573 59.118 55.712 M 36.942 75.88 L 49.038 75.88 M 51.457 66.602 C 50.735 66.602 48.992 64.899 48.635 64.182 M 71.617 66.602 C 73.946 66.602 74.256 65.08 76.052 64.182 M 71.617 85.56 C 71.736 86.513 75.493 89.515 76.455 89.997 M 48.634 87.173 C 45.715 87.173 44.835 89.678 42.586 90.803 M 87.125 33.96 C 85.397 33.745 85.789 32.74 84.033 33.91 C 83.889 34.006 84.914 33.977 85.129 33.761 C 85.949 32.943 84.938 32.418 84.433 32.165 M 163.942 138.787 C 162.708 137.553 158.869 134.575 156.961 136.293 C 155.428 137.674 158.286 140.227 159.454 137.888 M 93.213 137.658 C 93.806 137.658 94.422 137.707 95.011 137.644 C 96.091 137.531 96.772 136.325 97.582 135.739 C 99.945 134.028 101.045 131.575 102.444 129.142 C 104.32 125.882 104.482 122.359 104.482 118.709 L 104.482 114.871 C 104.482 113.825 104.002 112.879 104.002 111.873 C 104.002 111.178 103.763 109.35 103.763 111.034 L 103.763 121.573 C 103.763 123.349 104.42 125.055 104.482 126.811 C 104.575 129.411 106.004 132.703 107.839 134.539 C 108.611 135.312 109.08 136.26 109.877 137.058 C 110.637 137.818 111.55 138.38 112.501 138.803 C 114.384 139.64 116.826 139.336 118.868 139.336 M 92.493 138.377 C 93.501 138.377 94.254 138.317 95.131 138.803 C 95.892 139.227 96.536 140.34 97.049 141.069 C 99.167 144.079 100.812 146.833 101.618 150.463 C 102.472 154.307 102.804 158.219 102.804 162.176 L 102.804 166.68 C 102.804 167.898 102.932 166.492 103.03 166.053 C 103.45 164.161 103.313 162.176 103.897 160.257 C 104.558 158.079 104.932 155.644 105.921 153.594 C 107.346 150.64 108.124 147.506 109.997 144.8 C 111.303 142.912 112.312 141.527 114.673 141.002 C 115.523 140.813 116.414 140.296 117.297 140.296 L 119.108 140.296 M 135.805 74.881 C 139.541 74.881 141.58 80.304 142.346 83.37 C 142.954 85.803 142.705 88.404 143.134 90.875 C 143.255 91.572 143.359 92.472 143.359 93.169 C 143.359 93.54 143.544 94.761 143.544 93.773 C 143.544 91.195 144.131 88.778 145.099 86.4 C 146.087 83.976 147.628 81.879 149.071 79.714 C 150.775 77.157 153.192 76.725 156.072 76.725 M 137.278 74.144 C 138.753 74.144 140.517 74.591 141.609 73.499 C 142.397 72.71 142.767 71.508 143.175 70.499 C 143.862 68.798 144.478 67.273 144.925 65.481 C 145.353 63.768 145.413 61.964 145.662 60.218 C 145.869 58.764 146.123 57.325 146.123 55.856 L 146.123 55.078 C 146.123 56.325 146.496 57.616 146.675 58.846 C 147.313 63.233 147.796 68.638 150.268 72.484 C 150.818 73.341 154.855 76.3 156.048 76.434" stroke-width="5" stroke="rgb(0, 222, 174)" stroke-linecap="round" fill="none" stroke-miterlimit="10"></path></svg>